<svg viewBox="0 0 100 100" xmlns="http://www.w3.org/2000/svg">
  <!-- Background circle -->
  <circle cx="50" cy="50" r="48" fill="#1e3a8a" stroke="#1e40af" stroke-width="2"/>
  
  <!-- Rocket body -->
  <path d="M45 25 L55 25 L58 35 L60 45 L55 65 L45 65 L40 45 L42 35 Z" fill="#ffffff"/>
  
  <!-- Rocket window -->
  <circle cx="50" cy="35" r="4" fill="#1e3a8a"/>
  
  <!-- Rocket fins -->
  <path d="M40 45 L35 50 L40 55 Z" fill="#e5e7eb"/>
  <path d="M60 45 L65 50 L60 55 Z" fill="#e5e7eb"/>
  
  <!-- Rocket flame -->
  <path d="M45 65 L50 75 L55 65 Z" fill="#f59e0b"/>
  <path d="M47 65 L50 72 L53 65 Z" fill="#fbbf24"/>
  
  <!-- Hiring/People icons around rocket -->
  <!-- Person 1 -->
  <circle cx="25" cy="35" r="3" fill="#ffffff"/>
  <rect x="22" y="38" width="6" height="8" rx="1" fill="#ffffff"/>
  
  <!-- Person 2 -->
  <circle cx="75" cy="35" r="3" fill="#ffffff"/>
  <rect x="72" y="38" width="6" height="8" rx="1" fill="#ffffff"/>
  
  <!-- Person 3 -->
  <circle cx="30" cy="65" r="3" fill="#ffffff"/>
  <rect x="27" y="68" width="6" height="8" rx="1" fill="#ffffff"/>
  
  <!-- Person 4 -->
  <circle cx="70" cy="65" r="3" fill="#ffffff"/>
  <rect x="67" y="68" width="6" height="8" rx="1" fill="#ffffff"/>
  
  <!-- Connection lines (representing hiring network) -->
  <line x1="28" y1="42" x2="45" y2="50" stroke="#ffffff" stroke-width="1" opacity="0.6"/>
  <line x1="72" y1="42" x2="55" y2="50" stroke="#ffffff" stroke-width="1" opacity="0.6"/>
  <line x1="33" y1="72" x2="45" y2="60" stroke="#ffffff" stroke-width="1" opacity="0.6"/>
  <line x1="67" y1="72" x2="55" y2="60" stroke="#ffffff" stroke-width="1" opacity="0.6"/>
  
  <!-- "ICAN" text -->
  <text x="50" y="88" text-anchor="middle" fill="#ffffff" font-family="Arial, sans-serif" font-size="8" font-weight="bold">ICAN</text>
</svg>